<svg width="638" height="166" viewBox="0 0 638 166" fill="none" xmlns="http://www.w3.org/2000/svg">
<path d="M100.714 83.1357V43.3917L95.8504 42.8157V38.9757H129.386L130.282 48.5117H125.802L123.818 43.3917L108.65 42.8797V60.4157L118.954 60.0957L120.17 55.2957H124.266V69.3757H120.17L118.954 64.5757L108.65 64.3837V83.5197L125.418 82.8157L128.874 76.4797L133.098 77.3757L131.626 87.4877H95.7224V84.1597L100.714 83.1357ZM163.441 38.5277C165.617 38.5277 167.601 38.6984 169.393 39.0397C171.185 39.381 173.041 39.8077 174.961 40.3197L176.497 40.7037L175.921 50.8157H171.505L169.585 45.2477C168.561 44.437 167.431 43.861 166.193 43.5197C164.999 43.1357 163.292 42.9437 161.073 42.9437C158.215 42.9437 155.633 43.7544 153.329 45.3757C151.068 46.997 149.276 49.301 147.953 52.2877C146.631 55.2317 145.969 58.6664 145.969 62.5917C145.969 66.4744 146.567 70.0797 147.761 73.4077C148.999 76.693 150.791 79.3384 153.137 81.3437C155.527 83.3064 158.385 84.2877 161.713 84.2877C166.321 84.2877 169.351 83.1997 170.801 81.0237L172.849 75.7117H176.561V85.4397C175.879 85.4824 174.748 85.7597 173.169 86.2717C171.164 86.9117 169.18 87.4237 167.217 87.8077C165.297 88.1917 163.057 88.3837 160.497 88.3837C156.017 88.3837 152.028 87.4024 148.529 85.4397C145.031 83.477 142.3 80.725 140.337 77.1837C138.375 73.5997 137.393 69.4824 137.393 64.8317C137.393 59.7544 138.567 55.2104 140.913 51.1997C143.26 47.189 146.417 44.0744 150.385 41.8557C154.396 39.637 158.748 38.5277 163.441 38.5277ZM229.887 43.1997L225.023 43.7757V87.4877H216.447L197.183 56.4477L193.215 47.8077L193.279 83.0717L199.423 84.1597V87.4877H182.591V84.1597L187.775 83.0717V43.8397L182.783 43.2637V38.9757H195.647L215.743 72.5757L219.519 80.7037V43.8397L214.271 43.1997V38.9757H229.887V43.1997ZM240.533 83.1357V43.3917L234.837 42.8157V38.9757H253.909V42.8157L248.469 43.3917V83.1357L254.293 84.1597V87.4877H234.773V84.1597L240.533 83.1357ZM264.513 83.1357L267.265 43.8397L261.313 43.2637V38.9757H278.209L288.065 69.6317L289.345 74.8797L290.753 69.5677L300.161 38.9757H315.713V43.2637L309.889 43.8397L313.281 83.1357L318.465 84.2237V87.4877H300.609V84.2237L305.793 83.1357L303.489 55.8717L303.297 44.3517L302.081 49.2157L289.665 87.9997H286.849L275.457 55.0397C274.433 52.0957 273.26 48.4904 271.937 44.2237L271.745 54.1437L270.401 83.0717L276.289 84.1597V87.4877H259.137V84.1597L264.513 83.1357ZM345.439 38.5277C349.621 38.5277 353.29 39.5517 356.447 41.5997C359.605 43.6477 362.037 46.4637 363.743 50.0477C365.45 53.6317 366.303 57.685 366.303 62.2077C366.303 67.4557 365.322 72.0637 363.359 76.0317C361.439 79.957 358.773 83.0077 355.359 85.1837C351.946 87.317 348.106 88.3837 343.839 88.3837C339.573 88.3837 335.797 87.3597 332.511 85.3117C329.226 83.2637 326.687 80.4477 324.895 76.8637C323.103 73.237 322.207 69.141 322.207 64.5757C322.207 59.4557 323.231 54.9117 325.279 50.9437C327.37 46.9757 330.143 43.9464 333.599 41.8557C337.269 39.637 341.215 38.5277 345.439 38.5277ZM344.479 42.4957C340.042 42.4957 336.671 44.4157 334.367 48.2557C332.106 52.053 330.975 57.2797 330.975 63.9357C330.975 67.4344 331.509 70.7624 332.575 73.9197C333.685 77.0344 335.263 79.573 337.311 81.5357C339.359 83.4557 341.791 84.4157 344.607 84.4157C349.002 84.4157 352.245 82.5384 354.335 78.7837C356.469 74.9864 357.535 69.6957 357.535 62.9117C357.535 59.1997 357.002 55.7864 355.935 52.6717C354.911 49.557 353.397 47.0824 351.391 45.2477C349.429 43.413 347.125 42.4957 344.479 42.4957ZM386.246 83.1997V43.0717L375.878 43.8397L373.702 49.5997L369.862 49.7277L370.63 38.9757H409.414V49.6637L406.15 50.0477L404.23 43.7757L394.118 43.0717V83.1357L401.862 84.1597V87.4877H378.758V84.1597L386.246 83.1997ZM436.252 38.5277C440.433 38.5277 444.103 39.5517 447.26 41.5997C450.417 43.6477 452.849 46.4637 454.556 50.0477C456.263 53.6317 457.116 57.685 457.116 62.2077C457.116 67.4557 456.135 72.0637 454.172 76.0317C452.252 79.957 449.585 83.0077 446.172 85.1837C442.759 87.317 438.919 88.3837 434.652 88.3837C430.385 88.3837 426.609 87.3597 423.324 85.3117C420.039 83.2637 417.5 80.4477 415.708 76.8637C413.916 73.237 413.02 69.141 413.02 64.5757C413.02 59.4557 414.044 54.9117 416.092 50.9437C418.183 46.9757 420.956 43.9464 424.412 41.8557C428.081 39.637 432.028 38.5277 436.252 38.5277ZM435.292 42.4957C430.855 42.4957 427.484 44.4157 425.18 48.2557C422.919 52.053 421.788 57.2797 421.788 63.9357C421.788 67.4344 422.321 70.7624 423.388 73.9197C424.497 77.0344 426.076 79.573 428.124 81.5357C430.172 83.4557 432.604 84.4157 435.42 84.4157C439.815 84.4157 443.057 82.5384 445.148 78.7837C447.281 74.9864 448.348 69.6957 448.348 62.9117C448.348 59.1997 447.815 55.7864 446.748 52.6717C445.724 49.557 444.209 47.0824 442.204 45.2477C440.241 43.413 437.937 42.4957 435.292 42.4957ZM481.538 38.5277C486.957 38.5277 491.181 39.509 494.21 41.4717C497.282 43.4344 498.818 46.7197 498.818 51.3277C498.818 54.741 497.901 57.685 496.066 60.1597C494.232 62.5917 491.672 64.3624 488.386 65.4717C488.514 65.5144 488.856 65.7064 489.41 66.0477C490.69 66.8584 491.864 68.0744 492.93 69.6957C494.04 71.317 495.405 73.557 497.026 76.4157C498.221 78.549 499.181 80.1704 499.906 81.2797C500.632 82.3464 501.314 82.9864 501.954 83.1997L505.602 84.1597V87.4877H495.042C494.36 87.4877 493.634 86.8477 492.866 85.5677C492.098 84.245 491.074 82.1757 489.794 79.3597C488.002 75.3917 486.381 72.2984 484.93 70.0797C483.522 67.861 481.986 66.7517 480.322 66.7517L475.586 66.8157V83.1357L481.922 84.1597V87.4877H461.954V84.1597L467.65 83.1357V43.7117L462.658 43.1357V38.9757H470.466C471.362 38.9757 472.216 38.9544 473.026 38.9117C473.837 38.869 474.584 38.8264 475.266 38.7837C477.912 38.613 480.002 38.5277 481.538 38.5277ZM480.45 42.4957C480.109 42.5384 479.64 42.5597 479.042 42.5597C477.336 42.645 476.184 42.7944 475.586 43.0077V62.7197C476.568 62.8477 478.125 62.9117 480.258 62.9117C483.757 62.9117 486.402 62.0797 488.194 60.4157C489.986 58.709 490.882 55.9784 490.882 52.2237C490.882 49.0664 490.029 46.6344 488.322 44.9277C486.658 43.221 484.034 42.4104 480.45 42.4957ZM513.214 83.1357V43.3917L508.35 42.8157V38.9757H541.886L542.782 48.5117H538.302L536.318 43.3917L521.15 42.8797V60.4157L531.454 60.0957L532.67 55.2957H536.766V69.3757H532.67L531.454 64.5757L521.15 64.3837V83.5197L537.918 82.8157L541.374 76.4797L545.598 77.3757L544.126 87.4877H508.222V84.1597L513.214 83.1357Z" fill="white"/>
<path d="M55.2037 106.4V43.5197L37.3477 44.4797L34.2757 52.9277L30.2436 53.0237L31.3956 38.7197H87.2677L87.1717 53.2157L83.6197 53.5997L81.3157 44.3837L63.7477 43.5197V106.4L76.1317 107.648V111.488H43.3957V107.648L55.2037 106.4Z" fill="white"/>
<path d="M574.226 110.044C569.874 110.044 565.586 109.628 561.362 108.796C557.138 107.9 554.258 107.004 552.722 106.108V91.3237H556.658L559.442 100.732C561.17 102.524 563.442 103.804 566.258 104.572C569.074 105.276 572.082 105.628 575.282 105.628C579.378 105.628 582.898 104.572 585.842 102.46C588.85 100.284 590.354 97.0517 590.354 92.7637C590.354 90.2037 589.554 87.9317 587.954 85.9477C586.418 83.8997 584.498 82.1077 582.194 80.5717C579.89 79.0357 576.786 77.2117 572.882 75.0997C568.722 72.9237 565.298 70.9397 562.61 69.1477C559.922 67.2917 557.682 65.0837 555.89 62.5237C554.098 59.9637 553.202 57.0197 553.202 53.6917C553.202 49.5957 554.354 46.2037 556.658 43.5157C559.026 40.7637 561.938 38.7477 565.394 37.4677C568.85 36.1877 572.338 35.5477 575.858 35.5477C580.082 35.5477 583.762 35.9317 586.898 36.6997C590.034 37.4037 592.434 38.2357 594.098 39.1957V52.0597H590.258L586.898 42.9397C585.746 41.9157 584.114 41.1477 582.002 40.6357C579.954 40.1237 577.714 39.8677 575.282 39.8677C573.17 39.8677 571.026 40.2837 568.85 41.1157C566.674 41.9477 564.818 43.2917 563.282 45.1477C561.81 47.0037 561.074 49.3717 561.074 52.2517C561.074 55.5797 562.45 58.4597 565.202 60.8917C568.018 63.2597 572.082 65.7877 577.394 68.4757C582.002 70.9077 585.682 73.0197 588.434 74.8117C591.186 76.6037 593.522 78.8117 595.442 81.4357C597.426 83.9957 598.418 86.9717 598.418 90.3637C598.418 96.9557 596.146 101.884 591.602 105.148C587.058 108.412 581.266 110.044 574.226 110.044Z" fill="white"/>
<rect x="86.8036" y="96.0027" width="459.719" height="10.985" fill="#F81C1C"/>
<rect x="2.5" y="9.06232" width="632.313" height="130.821" stroke="white" stroke-width="5"/>
</svg>
