<svg width="618" height="170" viewBox="0 0 618 170" fill="none" xmlns="http://www.w3.org/2000/svg">
<path d="M104.867 100L104.483 97.504C106.744 97.12 108.109 96.6933 108.579 96.224C109.091 95.7547 109.347 94.8587 109.347 93.536V62.112C109.347 60.7893 109.091 59.8933 108.579 59.424C108.109 58.9547 106.744 58.528 104.483 58.144L104.867 55.648H134.691C134.947 57.2267 135.075 58.8053 135.075 60.384C135.075 61.92 135.032 63.6693 134.947 65.632L131.299 66.08C130.701 63.136 130.275 61.3013 130.019 60.576C129.763 59.808 129.464 59.4027 129.123 59.36C128.099 59.232 126.797 59.1467 125.219 59.104L115.555 58.912V76.128H125.155C125.709 76.128 126.392 74.6133 127.203 71.584L129.187 71.776C129.187 74.8907 129.229 77.0667 129.315 78.304C129.443 79.5413 129.507 80.288 129.507 80.544C129.549 80.8 129.635 81.4187 129.763 82.4C129.933 83.3813 130.04 84.064 130.083 84.448L127.779 84.832C127.096 82.4 126.627 80.9067 126.371 80.352C126.157 79.7973 125.901 79.52 125.603 79.52H115.555V96.736L121.251 96.672C126.072 96.672 129.016 96.416 130.083 95.904C130.211 95.8187 130.296 95.776 130.339 95.776C131.064 95.5627 132.003 93.0453 133.155 88.224L136.675 88.544C136.717 89.2693 136.739 90.5707 136.739 92.448C136.739 94.2827 136.504 96.8 136.035 100H104.867ZM141.782 78.816C141.782 73.952 142.784 69.6213 144.79 65.824C147.136 61.344 150.656 58.2293 155.35 56.48C157.952 55.5413 160.662 55.072 163.478 55.072C166.294 55.072 169.003 55.2853 171.606 55.712C174.208 56.1387 175.915 56.5227 176.726 56.864C176.982 58.4427 177.11 60.1067 177.11 61.856C177.11 63.5627 177.067 65.4827 176.982 67.616L173.334 68.128C172.395 63.1787 171.563 60.448 170.838 59.936C170.454 59.6373 169.451 59.3173 167.83 58.976C166.251 58.6347 164.672 58.464 163.094 58.464C158.4 58.464 154.859 60.192 152.47 63.648C150.08 67.104 148.886 71.648 148.886 77.28C148.886 83.936 150.4 88.8853 153.43 92.128C156.459 95.3707 160.214 96.992 164.694 96.992C166.315 96.992 167.83 96.8 169.238 96.416C170.688 96.032 171.627 95.6693 172.054 95.328C172.523 94.9867 173.227 92.2773 174.166 87.2L177.686 87.328C177.686 90.5707 177.451 94.0267 176.982 97.696C175.659 98.4213 173.654 99.0827 170.966 99.68C168.32 100.277 165.611 100.576 162.838 100.576C155.883 100.576 150.635 98.528 147.094 94.432C143.552 90.336 141.782 85.1307 141.782 78.816ZM182.429 100L182.045 97.504C184.307 97.12 185.672 96.6933 186.141 96.224C186.653 95.7547 186.909 94.8587 186.909 93.536V62.112C186.909 60.7893 186.653 59.8933 186.141 59.424C185.672 58.9547 184.307 58.528 182.045 58.144L182.429 55.648H187.357H191.133H194.653L216.541 87.904H216.989V63.392C216.989 61.472 216.627 60.192 215.901 59.552C215.219 58.912 213.533 58.4427 210.845 58.144L211.229 55.648H226.269L226.525 58.144L222.557 58.912C221.704 59.0827 221.277 59.6373 221.277 60.576V100H217.501H217.309L191.709 62.112H191.197V93.6C191.197 94.6667 191.389 95.456 191.773 95.968C192.2 96.48 192.947 96.8 194.013 96.928L198.493 97.504L198.237 100H182.429ZM232.054 100L231.67 97.504C233.932 97.12 235.297 96.6933 235.766 96.224C236.278 95.7547 236.534 94.8587 236.534 93.536V62.112C236.534 60.7893 236.278 59.8933 235.766 59.424C235.297 58.9547 233.932 58.528 231.67 58.144L232.054 55.648H247.734L247.99 58.144L244.022 58.912C243.169 59.0827 242.742 59.6373 242.742 60.576V95.072C242.742 96.0107 243.169 96.5653 244.022 96.736L247.99 97.504L247.734 100H232.054ZM253.169 100L252.785 97.504C255.089 97.0773 256.539 96.6293 257.137 96.16C257.777 95.6907 258.097 94.816 258.097 93.536V62.112C258.097 60.7893 257.841 59.8933 257.329 59.424C256.859 58.9547 255.494 58.528 253.233 58.144L253.617 55.648H267.057L279.345 89.312C279.558 89.9947 279.707 90.528 279.793 90.912H280.433C280.475 90.4427 280.582 90.016 280.753 89.632L293.233 55.648H304.817L305.073 58.144L302.385 58.912C301.574 59.168 301.169 59.6587 301.169 60.384V95.072C301.169 96.0107 301.595 96.5653 302.449 96.736L306.417 97.504L306.161 100H290.353L289.969 97.504C292.059 97.12 293.403 96.7147 294.001 96.288C294.641 95.8187 294.961 95.072 294.961 94.048V64.8C294.961 63.8187 295.025 63.008 295.153 62.368H294.641L281.137 98.72H276.529L262.897 62.24H262.385V93.6C262.385 94.624 262.577 95.392 262.961 95.904C263.387 96.416 264.134 96.7573 265.201 96.928L268.337 97.504L268.081 100H253.169ZM331.254 100.576C324.812 100.576 319.841 98.592 316.342 94.624C312.844 90.6133 311.094 85.152 311.094 78.24C311.094 71.2853 312.95 65.696 316.662 61.472C320.374 57.2053 325.452 55.072 331.894 55.072C338.38 55.072 343.372 57.0347 346.87 60.96C350.369 64.8427 352.118 70.2613 352.118 77.216C352.118 84.128 350.262 89.76 346.55 94.112C342.838 98.4213 337.74 100.576 331.254 100.576ZM332.15 97.184C334.454 97.184 336.46 96.6507 338.166 95.584C339.916 94.5173 341.281 93.0453 342.262 91.168C344.097 87.5413 345.014 82.976 345.014 77.472C345.014 71.968 343.798 67.424 341.366 63.84C338.977 60.256 335.542 58.464 331.062 58.464C328.758 58.464 326.732 58.9973 324.982 60.064C323.276 61.088 321.953 62.5173 321.014 64.352C319.137 67.8933 318.198 72.416 318.198 77.92C318.198 83.3813 319.393 87.968 321.782 91.68C324.172 95.3493 327.628 97.184 332.15 97.184ZM363.89 97.504C366.578 97.0773 368.221 96.6507 368.818 96.224C369.416 95.7547 369.714 94.8587 369.714 93.536V58.976C364.21 59.0613 361.266 59.1893 360.882 59.36C360.498 59.5307 360.2 59.7227 359.986 59.936C359.474 60.6187 358.856 63.0293 358.13 67.168L354.866 66.912C354.824 66.272 354.802 65.0347 354.802 63.2C354.802 61.3227 354.994 58.8053 355.378 55.648H390.258C390.642 58.8053 390.834 61.3227 390.834 63.2C390.834 65.0347 390.813 66.272 390.77 66.912L387.506 67.168C386.781 63.0293 386.141 60.6187 385.586 59.936C385.416 59.7227 385.138 59.5307 384.754 59.36C384.37 59.1893 381.426 59.0613 375.922 58.976V95.072C375.922 96.0533 376.349 96.608 377.202 96.736L382.13 97.504L381.874 100H364.274L363.89 97.504ZM413.692 100.576C407.249 100.576 402.278 98.592 398.78 94.624C395.281 90.6133 393.532 85.152 393.532 78.24C393.532 71.2853 395.388 65.696 399.1 61.472C402.812 57.2053 407.889 55.072 414.332 55.072C420.817 55.072 425.809 57.0347 429.308 60.96C432.806 64.8427 434.556 70.2613 434.556 77.216C434.556 84.128 432.7 89.76 428.988 94.112C425.276 98.4213 420.177 100.576 413.692 100.576ZM414.588 97.184C416.892 97.184 418.897 96.6507 420.604 95.584C422.353 94.5173 423.718 93.0453 424.7 91.168C426.534 87.5413 427.452 82.976 427.452 77.472C427.452 71.968 426.236 67.424 423.804 63.84C421.414 60.256 417.98 58.464 413.5 58.464C411.196 58.464 409.169 58.9973 407.42 60.064C405.713 61.088 404.39 62.5173 403.452 64.352C401.574 67.8933 400.636 72.416 400.636 77.92C400.636 83.3813 401.83 87.968 404.22 91.68C406.609 95.3493 410.065 97.184 414.588 97.184ZM439.992 100L439.608 97.504C441.869 97.12 443.234 96.6933 443.704 96.224C444.216 95.7547 444.472 94.8587 444.472 93.536V62.112C444.472 60.7893 444.216 59.8933 443.704 59.424C443.234 58.9547 441.869 58.528 439.608 58.144L439.992 55.648H457.784C462.349 55.648 465.741 56.5867 467.96 58.464C470.178 60.3413 471.288 62.88 471.288 66.08C471.288 69.28 470.413 72.0747 468.664 74.464C466.914 76.8107 464.461 78.5173 461.304 79.584V79.904C461.73 80.032 462.2 80.5013 462.712 81.312L471.736 94.88C472.376 95.8187 472.994 96.4587 473.592 96.8C474.232 97.1413 475.362 97.376 476.984 97.504L476.6 100H467.512L454.84 80.544H450.68V95.072C450.68 96.0107 451.106 96.5653 451.96 96.736L455.48 97.504L455.224 100H439.992ZM450.68 77.28H454.2C457.57 77.28 460.109 76.5547 461.816 75.104C463.565 73.6107 464.44 70.9013 464.44 66.976C464.44 61.6853 461.56 59.04 455.8 59.04H451.96C451.106 59.04 450.68 59.552 450.68 60.576V77.28ZM480.429 100L480.045 97.504C482.307 97.12 483.672 96.6933 484.141 96.224C484.653 95.7547 484.909 94.8587 484.909 93.536V62.112C484.909 60.7893 484.653 59.8933 484.141 59.424C483.672 58.9547 482.307 58.528 480.045 58.144L480.429 55.648H510.253C510.509 57.2267 510.637 58.8053 510.637 60.384C510.637 61.92 510.595 63.6693 510.509 65.632L506.861 66.08C506.264 63.136 505.837 61.3013 505.581 60.576C505.325 59.808 505.027 59.4027 504.685 59.36C503.661 59.232 502.36 59.1467 500.781 59.104L491.117 58.912V76.128H500.717C501.272 76.128 501.955 74.6133 502.765 71.584L504.749 71.776C504.749 74.8907 504.792 77.0667 504.877 78.304C505.005 79.5413 505.069 80.288 505.069 80.544C505.112 80.8 505.197 81.4187 505.325 82.4C505.496 83.3813 505.603 84.064 505.645 84.448L503.341 84.832C502.659 82.4 502.189 80.9067 501.933 80.352C501.72 79.7973 501.464 79.52 501.165 79.52H491.117V96.736L496.813 96.672C501.635 96.672 504.579 96.416 505.645 95.904C505.773 95.8187 505.859 95.776 505.901 95.776C506.627 95.5627 507.565 93.0453 508.717 88.224L512.237 88.544C512.28 89.2693 512.301 90.5707 512.301 92.448C512.301 94.2827 512.067 96.8 511.597 100H480.429Z" fill="black"/>
<path d="M56.1547 117.793C60.1867 117.153 62.6507 116.513 63.5467 115.873C64.4427 115.169 64.8907 113.825 64.8907 111.841V60.0013C56.6347 60.1293 52.2187 60.3213 51.6427 60.5773C51.0667 60.8333 50.6187 61.1213 50.2987 61.4413C49.5307 62.4653 48.6027 66.0813 47.5147 72.2893L42.6187 71.9053C42.5547 70.9453 42.5227 69.0893 42.5227 66.3373C42.5227 63.5213 42.8107 59.7453 43.3867 55.0093H95.7067C96.2827 59.7453 96.5707 63.5213 96.5707 66.3373C96.5707 69.0893 96.5387 70.9453 96.4747 71.9053L91.5787 72.2893C90.4907 66.0813 89.5307 62.4653 88.6987 61.4413C88.4427 61.1213 88.0267 60.8333 87.4507 60.5773C86.8747 60.3213 82.4587 60.1293 74.2027 60.0013V114.145C74.2027 115.617 74.8427 116.449 76.1227 116.641L83.5147 117.793L83.1307 121.537H56.7307L56.1547 117.793Z" fill="black"/>
<path d="M528.339 111.665C529.427 112.433 531.187 113.201 533.619 113.969C536.115 114.673 538.899 115.025 541.971 115.025C545.043 115.025 547.603 114.097 549.651 112.241C551.699 110.385 552.723 107.889 552.723 104.753C552.723 99.8893 549.971 95.9213 544.467 92.8493C543.059 92.1453 540.883 91.1853 537.939 89.9693C534.995 88.6893 532.915 87.7613 531.699 87.1853C530.483 86.5453 529.043 85.6813 527.379 84.5933C525.779 83.4413 524.531 82.2893 523.635 81.1373C521.395 78.3853 520.275 75.0253 520.275 71.0573C520.275 65.2333 522.419 60.6253 526.707 57.2333C531.059 53.8413 536.691 52.1453 543.603 52.1453C548.851 52.1453 553.779 53.0093 558.387 54.7373C558.579 56.2733 558.675 58.3213 558.675 60.8813C558.675 63.3773 558.323 66.7373 557.619 70.9613L552.051 71.6333C551.347 64.4013 550.483 60.3693 549.459 59.5373C547.923 58.1933 545.107 57.5213 541.011 57.5213C536.979 57.5213 533.843 58.3533 531.603 60.0173C529.363 61.6173 528.243 63.9853 528.243 67.1213C528.243 68.9133 528.595 70.5133 529.299 71.9213C530.003 73.3293 531.283 74.6413 533.139 75.8573C534.995 77.0733 536.467 77.9373 537.555 78.4493C539.155 79.2813 541.395 80.3053 544.275 81.5213C547.155 82.7373 549.395 83.7933 550.995 84.6893C552.595 85.5853 554.323 86.7693 556.179 88.2413C559.763 91.2493 561.555 95.6013 561.555 101.297C561.555 106.993 559.507 111.601 555.411 115.121C551.379 118.641 545.843 120.401 538.803 120.401C535.027 120.401 531.251 119.953 527.475 119.057C523.763 118.097 521.043 117.169 519.315 116.273C519.123 115.505 519.027 113.681 519.027 110.801C519.027 107.921 519.411 104.433 520.179 100.337L525.651 100.049C526.163 104.657 526.579 107.633 526.899 108.977C527.283 110.321 527.763 111.217 528.339 111.665Z" fill="black"/>
<rect x="104.515" y="113.537" width="404.488" height="8.30932" fill="#FF1212"/>
<rect x="104.515" y="107.537" width="404.488" height="2" fill="#FF1212"/>
<rect x="14.2256" y="24.0373" width="584.667" height="122.877" stroke="black" stroke-width="5"/>
</svg>
