<svg width="679" height="295" viewBox="0 0 679 295" fill="none" xmlns="http://www.w3.org/2000/svg">
<path d="M92.0507 79L91.6667 76.504C93.9281 76.12 95.2934 75.6933 95.7627 75.224C96.2747 74.7547 96.5307 73.8587 96.5307 72.536V41.112C96.5307 39.7893 96.2747 38.8933 95.7627 38.424C95.2934 37.9547 93.9281 37.528 91.6667 37.144L92.0507 34.648H121.875C122.131 36.2267 122.259 37.8053 122.259 39.384C122.259 40.92 122.216 42.6693 122.131 44.632L118.483 45.08C117.885 42.136 117.459 40.3013 117.203 39.576C116.947 38.808 116.648 38.4027 116.307 38.36C115.283 38.232 113.981 38.1467 112.403 38.104L102.739 37.912V55.128H112.339C112.893 55.128 113.576 53.6133 114.387 50.584L116.371 50.776C116.371 53.8907 116.413 56.0667 116.499 57.304C116.627 58.5413 116.691 59.288 116.691 59.544C116.733 59.8 116.819 60.4187 116.947 61.4C117.117 62.3813 117.224 63.064 117.267 63.448L114.963 63.832C114.28 61.4 113.811 59.9067 113.555 59.352C113.341 58.7973 113.085 58.52 112.787 58.52H102.739V75.736L108.435 75.672C113.256 75.672 116.2 75.416 117.267 74.904C117.395 74.8187 117.48 74.776 117.523 74.776C118.248 74.5627 119.187 72.0453 120.339 67.224L123.859 67.544C123.901 68.2693 123.923 69.5707 123.923 71.448C123.923 73.2827 123.688 75.8 123.219 79H92.0507ZM128.966 57.816C128.966 52.952 129.968 48.6213 131.974 44.824C134.32 40.344 137.84 37.2293 142.534 35.48C145.136 34.5413 147.846 34.072 150.662 34.072C153.478 34.072 156.187 34.2853 158.79 34.712C161.392 35.1387 163.099 35.5227 163.91 35.864C164.166 37.4427 164.294 39.1067 164.294 40.856C164.294 42.5627 164.251 44.4827 164.166 46.616L160.518 47.128C159.579 42.1787 158.747 39.448 158.022 38.936C157.638 38.6373 156.635 38.3173 155.014 37.976C153.435 37.6347 151.856 37.464 150.278 37.464C145.584 37.464 142.043 39.192 139.654 42.648C137.264 46.104 136.07 50.648 136.07 56.28C136.07 62.936 137.584 67.8853 140.614 71.128C143.643 74.3707 147.398 75.992 151.878 75.992C153.499 75.992 155.014 75.8 156.422 75.416C157.872 75.032 158.811 74.6693 159.238 74.328C159.707 73.9867 160.411 71.2773 161.35 66.2L164.87 66.328C164.87 69.5707 164.635 73.0267 164.166 76.696C162.843 77.4213 160.838 78.0827 158.15 78.68C155.504 79.2773 152.795 79.576 150.022 79.576C143.067 79.576 137.819 77.528 134.278 73.432C130.736 69.336 128.966 64.1307 128.966 57.816ZM169.613 79L169.229 76.504C171.491 76.12 172.856 75.6933 173.325 75.224C173.837 74.7547 174.093 73.8587 174.093 72.536V41.112C174.093 39.7893 173.837 38.8933 173.325 38.424C172.856 37.9547 171.491 37.528 169.229 37.144L169.613 34.648H174.541H178.317H181.837L203.725 66.904H204.173V42.392C204.173 40.472 203.811 39.192 203.085 38.552C202.403 37.912 200.717 37.4427 198.029 37.144L198.413 34.648H213.453L213.709 37.144L209.741 37.912C208.888 38.0827 208.461 38.6373 208.461 39.576V79H204.685H204.493L178.893 41.112H178.381V72.6C178.381 73.6667 178.573 74.456 178.957 74.968C179.384 75.48 180.131 75.8 181.197 75.928L185.677 76.504L185.421 79H169.613ZM219.238 79L218.854 76.504C221.116 76.12 222.481 75.6933 222.95 75.224C223.462 74.7547 223.718 73.8587 223.718 72.536V41.112C223.718 39.7893 223.462 38.8933 222.95 38.424C222.481 37.9547 221.116 37.528 218.854 37.144L219.238 34.648H234.918L235.174 37.144L231.206 37.912C230.353 38.0827 229.926 38.6373 229.926 39.576V74.072C229.926 75.0107 230.353 75.5653 231.206 75.736L235.174 76.504L234.918 79H219.238ZM240.353 79L239.969 76.504C242.273 76.0773 243.723 75.6293 244.321 75.16C244.961 74.6907 245.281 73.816 245.281 72.536V41.112C245.281 39.7893 245.025 38.8933 244.513 38.424C244.043 37.9547 242.678 37.528 240.417 37.144L240.801 34.648H254.241L266.529 68.312C266.742 68.9947 266.891 69.528 266.977 69.912H267.617C267.659 69.4427 267.766 69.016 267.937 68.632L280.417 34.648H292.001L292.257 37.144L289.569 37.912C288.758 38.168 288.353 38.6587 288.353 39.384V74.072C288.353 75.0107 288.779 75.5653 289.633 75.736L293.601 76.504L293.345 79H277.537L277.153 76.504C279.243 76.12 280.587 75.7147 281.185 75.288C281.825 74.8187 282.145 74.072 282.145 73.048V43.8C282.145 42.8187 282.209 42.008 282.337 41.368H281.825L268.321 77.72H263.713L250.081 41.24H249.569V72.6C249.569 73.624 249.761 74.392 250.145 74.904C250.571 75.416 251.318 75.7573 252.385 75.928L255.521 76.504L255.265 79H240.353ZM318.438 79.576C311.996 79.576 307.025 77.592 303.526 73.624C300.028 69.6133 298.278 64.152 298.278 57.24C298.278 50.2853 300.134 44.696 303.846 40.472C307.558 36.2053 312.636 34.072 319.078 34.072C325.564 34.072 330.556 36.0347 334.054 39.96C337.553 43.8427 339.302 49.2613 339.302 56.216C339.302 63.128 337.446 68.76 333.734 73.112C330.022 77.4213 324.924 79.576 318.438 79.576ZM319.334 76.184C321.638 76.184 323.644 75.6507 325.35 74.584C327.1 73.5173 328.465 72.0453 329.446 70.168C331.281 66.5413 332.198 61.976 332.198 56.472C332.198 50.968 330.982 46.424 328.55 42.84C326.161 39.256 322.726 37.464 318.246 37.464C315.942 37.464 313.916 37.9973 312.166 39.064C310.46 40.088 309.137 41.5173 308.198 43.352C306.321 46.8933 305.382 51.416 305.382 56.92C305.382 62.3813 306.577 66.968 308.966 70.68C311.356 74.3493 314.812 76.184 319.334 76.184ZM351.074 76.504C353.762 76.0773 355.405 75.6507 356.002 75.224C356.6 74.7547 356.898 73.8587 356.898 72.536V37.976C351.394 38.0613 348.45 38.1893 348.066 38.36C347.682 38.5307 347.384 38.7227 347.17 38.936C346.658 39.6187 346.04 42.0293 345.314 46.168L342.05 45.912C342.008 45.272 341.986 44.0347 341.986 42.2C341.986 40.3227 342.178 37.8053 342.562 34.648H377.442C377.826 37.8053 378.018 40.3227 378.018 42.2C378.018 44.0347 377.997 45.272 377.954 45.912L374.69 46.168C373.965 42.0293 373.325 39.6187 372.77 38.936C372.6 38.7227 372.322 38.5307 371.938 38.36C371.554 38.1893 368.61 38.0613 363.106 37.976V74.072C363.106 75.0533 363.533 75.608 364.386 75.736L369.314 76.504L369.058 79H351.458L351.074 76.504ZM400.876 79.576C394.433 79.576 389.462 77.592 385.964 73.624C382.465 69.6133 380.716 64.152 380.716 57.24C380.716 50.2853 382.572 44.696 386.284 40.472C389.996 36.2053 395.073 34.072 401.516 34.072C408.001 34.072 412.993 36.0347 416.492 39.96C419.99 43.8427 421.74 49.2613 421.74 56.216C421.74 63.128 419.884 68.76 416.172 73.112C412.46 77.4213 407.361 79.576 400.876 79.576ZM401.772 76.184C404.076 76.184 406.081 75.6507 407.788 74.584C409.537 73.5173 410.902 72.0453 411.884 70.168C413.718 66.5413 414.636 61.976 414.636 56.472C414.636 50.968 413.42 46.424 410.988 42.84C408.598 39.256 405.164 37.464 400.684 37.464C398.38 37.464 396.353 37.9973 394.604 39.064C392.897 40.088 391.574 41.5173 390.636 43.352C388.758 46.8933 387.82 51.416 387.82 56.92C387.82 62.3813 389.014 66.968 391.404 70.68C393.793 74.3493 397.249 76.184 401.772 76.184ZM427.176 79L426.792 76.504C429.053 76.12 430.418 75.6933 430.888 75.224C431.4 74.7547 431.656 73.8587 431.656 72.536V41.112C431.656 39.7893 431.4 38.8933 430.888 38.424C430.418 37.9547 429.053 37.528 426.792 37.144L427.176 34.648H444.968C449.533 34.648 452.925 35.5867 455.144 37.464C457.362 39.3413 458.472 41.88 458.472 45.08C458.472 48.28 457.597 51.0747 455.848 53.464C454.098 55.8107 451.645 57.5173 448.488 58.584V58.904C448.914 59.032 449.384 59.5013 449.896 60.312L458.92 73.88C459.56 74.8187 460.178 75.4587 460.776 75.8C461.416 76.1413 462.546 76.376 464.168 76.504L463.784 79H454.696L442.024 59.544H437.864V74.072C437.864 75.0107 438.29 75.5653 439.144 75.736L442.664 76.504L442.408 79H427.176ZM437.864 56.28H441.384C444.754 56.28 447.293 55.5547 449 54.104C450.749 52.6107 451.624 49.9013 451.624 45.976C451.624 40.6853 448.744 38.04 442.984 38.04H439.144C438.29 38.04 437.864 38.552 437.864 39.576V56.28ZM467.613 79L467.229 76.504C469.491 76.12 470.856 75.6933 471.325 75.224C471.837 74.7547 472.093 73.8587 472.093 72.536V41.112C472.093 39.7893 471.837 38.8933 471.325 38.424C470.856 37.9547 469.491 37.528 467.229 37.144L467.613 34.648H497.437C497.693 36.2267 497.821 37.8053 497.821 39.384C497.821 40.92 497.779 42.6693 497.693 44.632L494.045 45.08C493.448 42.136 493.021 40.3013 492.765 39.576C492.509 38.808 492.211 38.4027 491.869 38.36C490.845 38.232 489.544 38.1467 487.965 38.104L478.301 37.912V55.128H487.901C488.456 55.128 489.139 53.6133 489.949 50.584L491.933 50.776C491.933 53.8907 491.976 56.0667 492.061 57.304C492.189 58.5413 492.253 59.288 492.253 59.544C492.296 59.8 492.381 60.4187 492.509 61.4C492.68 62.3813 492.787 63.064 492.829 63.448L490.525 63.832C489.843 61.4 489.373 59.9067 489.117 59.352C488.904 58.7973 488.648 58.52 488.349 58.52H478.301V75.736L483.997 75.672C488.819 75.672 491.763 75.416 492.829 74.904C492.957 74.8187 493.043 74.776 493.085 74.776C493.811 74.5627 494.749 72.0453 495.901 67.224L499.421 67.544C499.464 68.2693 499.485 69.5707 499.485 71.448C499.485 73.2827 499.251 75.8 498.781 79H467.613Z" fill="black"/>
<path d="M43.1547 96.7933C47.1867 96.1533 49.6507 95.5133 50.5467 94.8733C51.4427 94.1693 51.8907 92.8253 51.8907 90.8413V39.0013C43.6347 39.1293 39.2187 39.3213 38.6427 39.5773C38.0667 39.8333 37.6187 40.1213 37.2987 40.4413C36.5307 41.4653 35.6027 45.0813 34.5147 51.2893L29.6187 50.9053C29.5547 49.9453 29.5227 48.0893 29.5227 45.3373C29.5227 42.5213 29.8107 38.7453 30.3867 34.0093H82.7067C83.2827 38.7453 83.5707 42.5213 83.5707 45.3373C83.5707 48.0893 83.5387 49.9453 83.4747 50.9053L78.5787 51.2893C77.4907 45.0813 76.5307 41.4653 75.6987 40.4413C75.4427 40.1213 75.0267 39.8333 74.4507 39.5773C73.8747 39.3213 69.4587 39.1293 61.2027 39.0013V93.1453C61.2027 94.6173 61.8427 95.4493 63.1227 95.6413L70.5147 96.7933L70.1307 100.537H43.7307L43.1547 96.7933Z" fill="black"/>
<path d="M515.339 90.6653C516.427 91.4333 518.187 92.2013 520.619 92.9693C523.115 93.6733 525.899 94.0253 528.971 94.0253C532.043 94.0253 534.603 93.0973 536.651 91.2413C538.699 89.3853 539.723 86.8893 539.723 83.7533C539.723 78.8893 536.971 74.9213 531.467 71.8493C530.059 71.1453 527.883 70.1853 524.939 68.9693C521.995 67.6893 519.915 66.7613 518.699 66.1853C517.483 65.5453 516.043 64.6813 514.379 63.5933C512.779 62.4413 511.531 61.2893 510.635 60.1373C508.395 57.3853 507.275 54.0253 507.275 50.0573C507.275 44.2333 509.419 39.6253 513.707 36.2333C518.059 32.8413 523.691 31.1453 530.603 31.1453C535.851 31.1453 540.779 32.0093 545.387 33.7373C545.579 35.2733 545.675 37.3213 545.675 39.8813C545.675 42.3773 545.323 45.7373 544.619 49.9613L539.051 50.6333C538.347 43.4013 537.483 39.3693 536.459 38.5373C534.923 37.1933 532.107 36.5213 528.011 36.5213C523.979 36.5213 520.843 37.3533 518.603 39.0173C516.363 40.6173 515.243 42.9853 515.243 46.1213C515.243 47.9133 515.595 49.5133 516.299 50.9213C517.003 52.3293 518.283 53.6413 520.139 54.8573C521.995 56.0733 523.467 56.9373 524.555 57.4493C526.155 58.2813 528.395 59.3053 531.275 60.5213C534.155 61.7373 536.395 62.7933 537.995 63.6893C539.595 64.5853 541.323 65.7693 543.179 67.2413C546.763 70.2493 548.555 74.6013 548.555 80.2973C548.555 85.9933 546.507 90.6013 542.411 94.1213C538.379 97.6413 532.843 99.4013 525.803 99.4013C522.027 99.4013 518.251 98.9533 514.475 98.0573C510.763 97.0973 508.043 96.1693 506.315 95.2733C506.123 94.5053 506.027 92.6813 506.027 89.8013C506.027 86.9213 506.411 83.4333 507.179 79.3373L512.651 79.0493C513.163 83.6573 513.579 86.6333 513.899 87.9773C514.283 89.3213 514.763 90.2173 515.339 90.6653Z" fill="black"/>
<rect x="91.5149" y="92.5373" width="404.488" height="8.30932" fill="#FF1212"/>
<rect x="91.5149" y="86.5373" width="404.488" height="2" fill="#FF1212"/>
<rect x="3.22565" y="3.03732" width="584.667" height="122.877" stroke="black" stroke-width="5"/>
<line x1="499.065" y1="86.899" x2="381.72" y2="177.835" stroke="white" stroke-width="10"/>
<line x1="298.612" y1="104.842" x2="298.759" y2="253.297" stroke="white" stroke-width="10"/>
<path d="M92.0507 79L91.6667 76.504C93.9281 76.12 95.2934 75.6933 95.7627 75.224C96.2747 74.7547 96.5307 73.8587 96.5307 72.536V41.112C96.5307 39.7893 96.2747 38.8933 95.7627 38.424C95.2934 37.9547 93.9281 37.528 91.6667 37.144L92.0507 34.648H121.875C122.131 36.2267 122.259 37.8053 122.259 39.384C122.259 40.92 122.216 42.6693 122.131 44.632L118.483 45.08C117.885 42.136 117.459 40.3013 117.203 39.576C116.947 38.808 116.648 38.4027 116.307 38.36C115.283 38.232 113.981 38.1467 112.403 38.104L102.739 37.912V55.128H112.339C112.893 55.128 113.576 53.6133 114.387 50.584L116.371 50.776C116.371 53.8907 116.413 56.0667 116.499 57.304C116.627 58.5413 116.691 59.288 116.691 59.544C116.733 59.8 116.819 60.4187 116.947 61.4C117.117 62.3813 117.224 63.064 117.267 63.448L114.963 63.832C114.28 61.4 113.811 59.9067 113.555 59.352C113.341 58.7973 113.085 58.52 112.787 58.52H102.739V75.736L108.435 75.672C113.256 75.672 116.2 75.416 117.267 74.904C117.395 74.8187 117.48 74.776 117.523 74.776C118.248 74.5627 119.187 72.0453 120.339 67.224L123.859 67.544C123.901 68.2693 123.923 69.5707 123.923 71.448C123.923 73.2827 123.688 75.8 123.219 79H92.0507ZM128.966 57.816C128.966 52.952 129.968 48.6213 131.974 44.824C134.32 40.344 137.84 37.2293 142.534 35.48C145.136 34.5413 147.846 34.072 150.662 34.072C153.478 34.072 156.187 34.2853 158.79 34.712C161.392 35.1387 163.099 35.5227 163.91 35.864C164.166 37.4427 164.294 39.1067 164.294 40.856C164.294 42.5627 164.251 44.4827 164.166 46.616L160.518 47.128C159.579 42.1787 158.747 39.448 158.022 38.936C157.638 38.6373 156.635 38.3173 155.014 37.976C153.435 37.6347 151.856 37.464 150.278 37.464C145.584 37.464 142.043 39.192 139.654 42.648C137.264 46.104 136.07 50.648 136.07 56.28C136.07 62.936 137.584 67.8853 140.614 71.128C143.643 74.3707 147.398 75.992 151.878 75.992C153.499 75.992 155.014 75.8 156.422 75.416C157.872 75.032 158.811 74.6693 159.238 74.328C159.707 73.9867 160.411 71.2773 161.35 66.2L164.87 66.328C164.87 69.5707 164.635 73.0267 164.166 76.696C162.843 77.4213 160.838 78.0827 158.15 78.68C155.504 79.2773 152.795 79.576 150.022 79.576C143.067 79.576 137.819 77.528 134.278 73.432C130.736 69.336 128.966 64.1307 128.966 57.816ZM169.613 79L169.229 76.504C171.491 76.12 172.856 75.6933 173.325 75.224C173.837 74.7547 174.093 73.8587 174.093 72.536V41.112C174.093 39.7893 173.837 38.8933 173.325 38.424C172.856 37.9547 171.491 37.528 169.229 37.144L169.613 34.648H174.541H178.317H181.837L203.725 66.904H204.173V42.392C204.173 40.472 203.811 39.192 203.085 38.552C202.403 37.912 200.717 37.4427 198.029 37.144L198.413 34.648H213.453L213.709 37.144L209.741 37.912C208.888 38.0827 208.461 38.6373 208.461 39.576V79H204.685H204.493L178.893 41.112H178.381V72.6C178.381 73.6667 178.573 74.456 178.957 74.968C179.384 75.48 180.131 75.8 181.197 75.928L185.677 76.504L185.421 79H169.613ZM219.238 79L218.854 76.504C221.116 76.12 222.481 75.6933 222.95 75.224C223.462 74.7547 223.718 73.8587 223.718 72.536V41.112C223.718 39.7893 223.462 38.8933 222.95 38.424C222.481 37.9547 221.116 37.528 218.854 37.144L219.238 34.648H234.918L235.174 37.144L231.206 37.912C230.353 38.0827 229.926 38.6373 229.926 39.576V74.072C229.926 75.0107 230.353 75.5653 231.206 75.736L235.174 76.504L234.918 79H219.238ZM240.353 79L239.969 76.504C242.273 76.0773 243.723 75.6293 244.321 75.16C244.961 74.6907 245.281 73.816 245.281 72.536V41.112C245.281 39.7893 245.025 38.8933 244.513 38.424C244.043 37.9547 242.678 37.528 240.417 37.144L240.801 34.648H254.241L266.529 68.312C266.742 68.9947 266.891 69.528 266.977 69.912H267.617C267.659 69.4427 267.766 69.016 267.937 68.632L280.417 34.648H292.001L292.257 37.144L289.569 37.912C288.758 38.168 288.353 38.6587 288.353 39.384V74.072C288.353 75.0107 288.779 75.5653 289.633 75.736L293.601 76.504L293.345 79H277.537L277.153 76.504C279.243 76.12 280.587 75.7147 281.185 75.288C281.825 74.8187 282.145 74.072 282.145 73.048V43.8C282.145 42.8187 282.209 42.008 282.337 41.368H281.825L268.321 77.72H263.713L250.081 41.24H249.569V72.6C249.569 73.624 249.761 74.392 250.145 74.904C250.571 75.416 251.318 75.7573 252.385 75.928L255.521 76.504L255.265 79H240.353ZM318.438 79.576C311.996 79.576 307.025 77.592 303.526 73.624C300.028 69.6133 298.278 64.152 298.278 57.24C298.278 50.2853 300.134 44.696 303.846 40.472C307.558 36.2053 312.636 34.072 319.078 34.072C325.564 34.072 330.556 36.0347 334.054 39.96C337.553 43.8427 339.302 49.2613 339.302 56.216C339.302 63.128 337.446 68.76 333.734 73.112C330.022 77.4213 324.924 79.576 318.438 79.576ZM319.334 76.184C321.638 76.184 323.644 75.6507 325.35 74.584C327.1 73.5173 328.465 72.0453 329.446 70.168C331.281 66.5413 332.198 61.976 332.198 56.472C332.198 50.968 330.982 46.424 328.55 42.84C326.161 39.256 322.726 37.464 318.246 37.464C315.942 37.464 313.916 37.9973 312.166 39.064C310.46 40.088 309.137 41.5173 308.198 43.352C306.321 46.8933 305.382 51.416 305.382 56.92C305.382 62.3813 306.577 66.968 308.966 70.68C311.356 74.3493 314.812 76.184 319.334 76.184ZM351.074 76.504C353.762 76.0773 355.405 75.6507 356.002 75.224C356.6 74.7547 356.898 73.8587 356.898 72.536V37.976C351.394 38.0613 348.45 38.1893 348.066 38.36C347.682 38.5307 347.384 38.7227 347.17 38.936C346.658 39.6187 346.04 42.0293 345.314 46.168L342.05 45.912C342.008 45.272 341.986 44.0347 341.986 42.2C341.986 40.3227 342.178 37.8053 342.562 34.648H377.442C377.826 37.8053 378.018 40.3227 378.018 42.2C378.018 44.0347 377.997 45.272 377.954 45.912L374.69 46.168C373.965 42.0293 373.325 39.6187 372.77 38.936C372.6 38.7227 372.322 38.5307 371.938 38.36C371.554 38.1893 368.61 38.0613 363.106 37.976V74.072C363.106 75.0533 363.533 75.608 364.386 75.736L369.314 76.504L369.058 79H351.458L351.074 76.504ZM400.876 79.576C394.433 79.576 389.462 77.592 385.964 73.624C382.465 69.6133 380.716 64.152 380.716 57.24C380.716 50.2853 382.572 44.696 386.284 40.472C389.996 36.2053 395.073 34.072 401.516 34.072C408.001 34.072 412.993 36.0347 416.492 39.96C419.99 43.8427 421.74 49.2613 421.74 56.216C421.74 63.128 419.884 68.76 416.172 73.112C412.46 77.4213 407.361 79.576 400.876 79.576ZM401.772 76.184C404.076 76.184 406.081 75.6507 407.788 74.584C409.537 73.5173 410.902 72.0453 411.884 70.168C413.718 66.5413 414.636 61.976 414.636 56.472C414.636 50.968 413.42 46.424 410.988 42.84C408.598 39.256 405.164 37.464 400.684 37.464C398.38 37.464 396.353 37.9973 394.604 39.064C392.897 40.088 391.574 41.5173 390.636 43.352C388.758 46.8933 387.82 51.416 387.82 56.92C387.82 62.3813 389.014 66.968 391.404 70.68C393.793 74.3493 397.249 76.184 401.772 76.184ZM427.176 79L426.792 76.504C429.053 76.12 430.418 75.6933 430.888 75.224C431.4 74.7547 431.656 73.8587 431.656 72.536V41.112C431.656 39.7893 431.4 38.8933 430.888 38.424C430.418 37.9547 429.053 37.528 426.792 37.144L427.176 34.648H444.968C449.533 34.648 452.925 35.5867 455.144 37.464C457.362 39.3413 458.472 41.88 458.472 45.08C458.472 48.28 457.597 51.0747 455.848 53.464C454.098 55.8107 451.645 57.5173 448.488 58.584V58.904C448.914 59.032 449.384 59.5013 449.896 60.312L458.92 73.88C459.56 74.8187 460.178 75.4587 460.776 75.8C461.416 76.1413 462.546 76.376 464.168 76.504L463.784 79H454.696L442.024 59.544H437.864V74.072C437.864 75.0107 438.29 75.5653 439.144 75.736L442.664 76.504L442.408 79H427.176ZM437.864 56.28H441.384C444.754 56.28 447.293 55.5547 449 54.104C450.749 52.6107 451.624 49.9013 451.624 45.976C451.624 40.6853 448.744 38.04 442.984 38.04H439.144C438.29 38.04 437.864 38.552 437.864 39.576V56.28ZM467.613 79L467.229 76.504C469.491 76.12 470.856 75.6933 471.325 75.224C471.837 74.7547 472.093 73.8587 472.093 72.536V41.112C472.093 39.7893 471.837 38.8933 471.325 38.424C470.856 37.9547 469.491 37.528 467.229 37.144L467.613 34.648H497.437C497.693 36.2267 497.821 37.8053 497.821 39.384C497.821 40.92 497.779 42.6693 497.693 44.632L494.045 45.08C493.448 42.136 493.021 40.3013 492.765 39.576C492.509 38.808 492.211 38.4027 491.869 38.36C490.845 38.232 489.544 38.1467 487.965 38.104L478.301 37.912V55.128H487.901C488.456 55.128 489.139 53.6133 489.949 50.584L491.933 50.776C491.933 53.8907 491.976 56.0667 492.061 57.304C492.189 58.5413 492.253 59.288 492.253 59.544C492.296 59.8 492.381 60.4187 492.509 61.4C492.68 62.3813 492.787 63.064 492.829 63.448L490.525 63.832C489.843 61.4 489.373 59.9067 489.117 59.352C488.904 58.7973 488.648 58.52 488.349 58.52H478.301V75.736L483.997 75.672C488.819 75.672 491.763 75.416 492.829 74.904C492.957 74.8187 493.043 74.776 493.085 74.776C493.811 74.5627 494.749 72.0453 495.901 67.224L499.421 67.544C499.464 68.2693 499.485 69.5707 499.485 71.448C499.485 73.2827 499.251 75.8 498.781 79H467.613Z" fill="black"/>
<path d="M43.1547 96.7933C47.1867 96.1533 49.6507 95.5133 50.5467 94.8733C51.4427 94.1693 51.8907 92.8253 51.8907 90.8413V39.0013C43.6347 39.1293 39.2187 39.3213 38.6427 39.5773C38.0667 39.8333 37.6187 40.1213 37.2987 40.4413C36.5307 41.4653 35.6027 45.0813 34.5147 51.2893L29.6187 50.9053C29.5547 49.9453 29.5227 48.0893 29.5227 45.3373C29.5227 42.5213 29.8107 38.7453 30.3867 34.0093H82.7067C83.2827 38.7453 83.5707 42.5213 83.5707 45.3373C83.5707 48.0893 83.5387 49.9453 83.4747 50.9053L78.5787 51.2893C77.4907 45.0813 76.5307 41.4653 75.6987 40.4413C75.4427 40.1213 75.0267 39.8333 74.4507 39.5773C73.8747 39.3213 69.4587 39.1293 61.2027 39.0013V93.1453C61.2027 94.6173 61.8427 95.4493 63.1227 95.6413L70.5147 96.7933L70.1307 100.537H43.7307L43.1547 96.7933Z" fill="black"/>
<path d="M515.339 90.6653C516.427 91.4333 518.187 92.2013 520.619 92.9693C523.115 93.6733 525.899 94.0253 528.971 94.0253C532.043 94.0253 534.603 93.0973 536.651 91.2413C538.699 89.3853 539.723 86.8893 539.723 83.7533C539.723 78.8893 536.971 74.9213 531.467 71.8493C530.059 71.1453 527.883 70.1853 524.939 68.9693C521.995 67.6893 519.915 66.7613 518.699 66.1853C517.483 65.5453 516.043 64.6813 514.379 63.5933C512.779 62.4413 511.531 61.2893 510.635 60.1373C508.395 57.3853 507.275 54.0253 507.275 50.0573C507.275 44.2333 509.419 39.6253 513.707 36.2333C518.059 32.8413 523.691 31.1453 530.603 31.1453C535.851 31.1453 540.779 32.0093 545.387 33.7373C545.579 35.2733 545.675 37.3213 545.675 39.8813C545.675 42.3773 545.323 45.7373 544.619 49.9613L539.051 50.6333C538.347 43.4013 537.483 39.3693 536.459 38.5373C534.923 37.1933 532.107 36.5213 528.011 36.5213C523.979 36.5213 520.843 37.3533 518.603 39.0173C516.363 40.6173 515.243 42.9853 515.243 46.1213C515.243 47.9133 515.595 49.5133 516.299 50.9213C517.003 52.3293 518.283 53.6413 520.139 54.8573C521.995 56.0733 523.467 56.9373 524.555 57.4493C526.155 58.2813 528.395 59.3053 531.275 60.5213C534.155 61.7373 536.395 62.7933 537.995 63.6893C539.595 64.5853 541.323 65.7693 543.179 67.2413C546.763 70.2493 548.555 74.6013 548.555 80.2973C548.555 85.9933 546.507 90.6013 542.411 94.1213C538.379 97.6413 532.843 99.4013 525.803 99.4013C522.027 99.4013 518.251 98.9533 514.475 98.0573C510.763 97.0973 508.043 96.1693 506.315 95.2733C506.123 94.5053 506.027 92.6813 506.027 89.8013C506.027 86.9213 506.411 83.4333 507.179 79.3373L512.651 79.0493C513.163 83.6573 513.579 86.6333 513.899 87.9773C514.283 89.3213 514.763 90.2173 515.339 90.6653Z" fill="black"/>
<rect x="91.5149" y="92.5373" width="404.488" height="8.30932" fill="#FF1212"/>
<rect x="91.5149" y="86.5373" width="404.488" height="2" fill="#FF1212"/>
<rect x="3.22565" y="3.03732" width="584.667" height="122.877" stroke="black" stroke-width="5"/>
<line x1="493.594" y1="86.9125" x2="418.103" y2="144.879" stroke="white" stroke-width="10"/>
<line x1="298.612" y1="104.842" x2="298.759" y2="253.297" stroke="white" stroke-width="10"/>
<line x1="153.59" y1="138.716" x2="95.5478" y2="82.5945" stroke="white" stroke-width="10"/>
</svg>
