<svg width="90" height="100" viewBox="0 0 171 169" fill="none" xmlns="http://www.w3.org/2000/svg">
<path d="M85.7386 166.874C131.754 166.874 169.045 130.021 169.045 84.5606C169.045 39.0998 131.754 2.23389 85.7386 2.23389C39.7366 2.23389 2.44537 39.0998 2.44537 84.5606C2.44537 130.021 39.7366 166.874 85.7386 166.874Z" fill="black"/>
<path d="M104.432 63.1204C104.432 53.7595 110.844 44.6808 114.343 46.391C118.331 48.3667 111.354 57.1833 104.432 63.1204ZM60.8268 66.5308C60.8268 59.0044 68.3408 44.7043 72.9308 46.2163C78.3572 48.0038 68.436 62.4283 60.8268 66.5308ZM53.2074 120.358C49.753 120.513 47.441 118.329 47.441 114.683C47.441 104.889 61.194 95.531 71.581 90.5078C69.7382 104.183 65.0632 119.831 53.2074 120.358ZM116.658 88.4414C108.814 88.4414 102.82 94.1433 102.82 100.981C102.82 106.683 106.288 111.242 110.888 111.242C112.517 111.242 114.129 110.325 114.129 108.289C114.129 105.309 110.151 104.593 110.45 100.161C110.65 97.2379 113.438 95.2824 116.206 95.2824C121.738 95.2824 124.325 100.581 124.325 106.048C124.101 114.491 117.811 120.355 110.44 120.355C100.743 120.355 94.514 111.242 94.514 101.435C94.514 86.832 104.211 81.1334 109.29 79.7726C109.338 79.7726 122.557 82.0944 122.146 76.3353C121.955 73.8019 118.144 72.8275 115.39 72.7233C112.327 72.6057 109.233 73.6944 109.233 73.6944C107.628 72.888 106.513 71.3121 105.822 69.4977C115.285 62.4216 121.976 55.5873 121.976 47.8324C121.976 43.7299 119.201 40.0809 113.894 40.0809C104.432 40.0809 97.2782 51.9384 97.2782 62.6568C97.2782 64.4745 97.2782 66.3057 97.7542 67.8984C91.7498 72.226 87.2856 74.9241 79.2174 79.7121C79.2174 78.7142 79.4282 76.1371 80.1082 72.804C82.8724 69.8371 86.6702 65.3918 86.6702 61.968C86.6702 60.3753 85.7556 59.0011 83.8924 59.0011C79.2854 59.0011 75.831 65.8488 74.9062 70.6368C72.8288 73.1568 68.674 76.3488 65.206 76.3488C62.4418 76.3488 61.5136 73.8388 61.279 72.9216C70.051 69.9547 80.897 58.0972 80.897 47.3788C80.897 45.1041 79.9722 40.0809 73.0532 40.0809C62.6696 40.0809 53.9112 55.3656 53.9112 67.2096C50.2086 67.2096 48.8316 63.3388 48.8316 60.372C48.8316 57.4017 49.9842 54.4483 49.9842 53.531C49.9842 52.6171 49.5218 51.4814 48.1312 51.4814C44.6768 51.4814 42.5994 56.0409 42.5994 61.2859C42.8374 68.5838 47.679 73.1568 54.1356 73.6036C55.0604 77.9414 58.9772 82.0473 63.8188 82.0473C66.8244 82.0473 70.5134 81.1334 73.0532 78.8587C72.8288 80.4513 72.6044 81.8256 72.3664 83.1864C62.2072 88.4414 54.8224 92.087 48.1312 98.014C42.8374 102.809 39.8352 109.189 39.8352 114.199C39.8352 121.05 44.2144 127.431 53.2108 127.431C63.8188 127.431 71.904 118.997 75.831 107.362C77.6704 101.895 78.4082 93.9316 78.8808 86.6236C89.482 80.6865 94.514 77.266 100.056 73.3819C100.746 74.5209 101.443 75.4315 102.358 76.1136C97.5162 78.6235 85.98 85.6963 85.98 102.338C85.98 114.196 94.0482 127.427 109.981 127.427C123.132 127.427 132.128 116.706 132.128 106.441C132.125 97.1001 126.817 88.4414 116.658 88.4414ZM156.333 108.03C156.299 108.101 156.17 108.195 155.908 108.111C155.704 108.04 155.66 107.946 155.66 107.815C155.67 107.687 158.448 99.5697 158.424 90.2692C158.4 80.2161 154.272 74.0572 148.979 74.0572C145.738 74.0572 143.433 76.3454 143.433 79.7726C143.433 85.9281 151.042 86.3884 151.042 99.8385C151.042 105.305 149.89 110.55 148.054 116.249C139.506 144.748 112.279 157.98 85.7556 157.98C73.519 157.98 64.8286 155.494 62.2446 154.348C62.1392 154.287 62.0406 154.089 62.1256 153.887C62.1834 153.736 62.3636 153.619 62.469 153.666C63.5162 154.066 70.9792 156.387 80.2136 156.387C90.3626 156.387 96.367 152.285 96.367 147.262C96.367 144.073 93.8272 141.563 90.6006 141.563C84.3684 141.563 83.8958 149.315 70.5168 149.315C64.7504 149.315 59.6708 148.175 53.6766 146.344C25.0554 137.682 11.4316 111.011 11.4418 84.5606C11.452 71.6716 15.1104 61.4068 15.1682 61.3128C15.2158 61.2456 15.379 61.1716 15.5796 61.2456C15.7836 61.3128 15.8278 61.4774 15.8176 61.5379C15.4878 62.6064 13.0636 69.9614 13.0636 79.0872C13.0636 89.1268 17.215 95.0505 22.5224 95.0505C25.5144 95.0505 28.0542 92.7758 28.0542 89.5838C28.0542 83.4182 20.4348 82.7361 20.4348 69.5078C20.4348 63.8059 21.5976 58.786 23.437 52.8624C32.209 24.5846 59.2118 11.3328 85.7488 11.1278C98.0806 11.0337 108.869 14.6827 109.284 15.0086C109.355 15.0691 109.426 15.2237 109.355 15.4085C109.256 15.6302 109.114 15.6537 109.046 15.6403C108.916 15.6302 101.899 12.7305 91.2772 12.7305C81.356 12.7205 75.1238 16.8264 75.1238 22.0781C75.1238 25.0349 77.4392 27.5448 80.8902 27.5448C87.1224 27.5448 87.5848 20.0251 100.974 20.0251C106.727 20.0251 111.81 21.1507 117.804 22.9819C146.656 31.6473 159.784 58.5542 160.032 84.5572C160.168 97.8729 156.37 107.946 156.333 108.03ZM85.7522 6.11469C41.9092 6.11469 6.37577 41.22 6.37577 84.5572C6.37577 127.884 41.9092 162.99 85.7522 162.99C129.585 162.99 165.118 127.884 165.118 84.5572C165.118 41.4552 129.585 6.11469 85.7522 6.11469ZM85.7522 166.874C39.8318 166.874 2.44537 130.163 2.44537 84.5606C2.44537 39.167 39.8318 2.23389 85.7522 2.23389C131.659 2.23389 169.045 39.167 169.045 84.5606C169.045 130.163 131.659 166.874 85.7522 166.874Z" fill="white"/>
</svg>
