<svg width="162" height="66" viewBox="0 0 362 66" fill="none" xmlns="http://www.w3.org/2000/svg">
<g clip-path="url(#clip0)">
<path d="M290.21 3.50517V26.2172H319.946C319.946 26.2996 319.908 3.49548 319.946 3.50517C319.908 3.49548 334.487 3.50517 334.653 3.50517C334.653 3.50517 334.71 60.2367 334.653 60.2997H319.946V35.2904C319.946 35.3824 290.21 35.2904 290.21 35.2904C290.238 35.4067 290.21 60.3143 290.21 60.2997H275.508C275.508 60.2997 275.588 3.50517 275.508 3.50517H290.21Z" fill="white"/>
<path d="M150.545 3.50542V13.1505H128.037V60.3H113.33V13.1505H90.8359C90.8359 13.1505 90.8501 3.52481 90.8359 3.50542C90.8501 3.52481 150.545 3.50542 150.545 3.50542Z" fill="white"/>
<path d="M207.767 60.2988H191.373C191.387 60.2988 186.553 48.0898 186.553 48.0898H158.968C158.968 48.0898 154.219 60.3134 154.158 60.2988C154.158 60.3134 137.764 60.2988 137.764 60.2988L163.736 3.50425C163.736 3.52849 181.78 3.50425 181.78 3.50425L207.767 60.2988ZM172.732 13.1542L162.509 38.9972H183.017L172.732 13.1542V13.1542Z" fill="white"/>
<path d="M346.317 3.505H361.038V60.2996H346.317V3.505Z" fill="white"/>
<path d="M14.7501 3.50509C14.7501 3.50509 14.7453 26.3867 14.7501 26.2171H44.4672C44.4672 26.2995 44.4293 3.49539 44.4672 3.50509C44.4293 3.49539 59.0508 3.50509 59.1835 3.50509C59.1835 3.50509 59.2546 60.2367 59.1835 60.2997H44.4672V35.2903C44.4672 35.3824 14.7501 35.2903 14.7501 35.2903C14.7501 35.4066 14.7453 60.3142 14.7501 60.2997H0.0384521C0.0384521 60.2997 0.095327 3.50509 0.0384521 3.50509H14.7501Z" fill="white"/>
<path d="M70.8534 3.505H85.5698V60.2996H70.8534V3.505Z" fill="white"/>
<path d="M207.239 44.5795C205.931 40.7409 205.263 36.718 205.263 32.4577C205.263 26.4962 206.282 20.7188 209.087 15.9011C211.96 10.9671 216.382 7.143 221.714 5.12189C226.799 3.16379 232.288 2.09265 238.018 2.09265C244.634 2.09265 250.867 3.57092 256.597 6.09125C261.9 8.4177 265.896 13.3081 267.1 19.2163C267.341 20.3747 267.498 21.6058 267.602 22.8223H252.151C252.118 21.2762 251.876 19.8028 251.369 18.4457C250.189 15.3098 247.634 12.8525 244.473 11.888C242.43 11.224 240.25 10.8993 238.018 10.8993C235.473 10.8993 233.013 11.3355 230.738 12.174C226.965 13.5214 224.031 16.6427 222.709 20.5104C221.406 24.2327 220.661 28.2653 220.661 32.4577C220.661 35.9377 221.235 39.2917 222.088 42.4421C223.216 46.5764 226.259 49.8964 230.122 51.4135C232.581 52.3538 235.245 52.9063 238.018 52.9063C240.388 52.9063 242.672 52.5428 244.829 51.8303C247.705 50.89 250.028 48.7284 251.255 45.9221C252.052 44.0755 252.478 42.0204 252.478 39.8297H267.986C267.872 41.6908 267.64 43.5132 267.228 45.2145C265.896 50.8513 262.052 55.5817 256.943 57.7579C251.127 60.2443 244.734 61.6935 238.018 61.6935C232.823 61.6935 227.79 60.8696 223.102 59.3477C215.927 57.0454 209.727 51.7673 207.239 44.5795Z" fill="white"/>
</g>
<defs>
<clipPath id="clip0">
<rect width="361" height="65" fill="white" transform="translate(0.0384521 0.242249)"/>
</clipPath>
</defs>
</svg>
