<svg width="201" height="67" viewBox="0 0 301 67" fill="none" xmlns="http://www.w3.org/2000/svg">
<path d="M95.8221 66.931H70.0498L83.5472 24.4926H109.324L95.8221 66.931Z" fill="white"/>
<path d="M113.172 12.3704C112.122 15.69 108.529 18.4236 105.185 18.4236H91.5458C88.2152 18.4236 86.3476 15.69 87.4126 12.3704L89.3392 6.304C90.402 2.96903 93.9929 0.235442 97.3344 0.235442H110.976C114.315 0.235442 116.174 2.96903 115.107 6.304L113.172 12.3704Z" fill="white"/>
<path d="M154.936 0.235896L146.3 27.3749C146.803 25.7873 145.924 24.4926 144.33 24.4926H121.453C118.109 24.4926 114.518 27.2197 113.453 30.5525L103.809 60.8756C102.746 64.2062 104.607 66.931 107.944 66.931H159.489L180.699 0.235896H154.936ZM135.595 61.0133C135.092 62.6032 133.38 63.8978 131.781 63.8978H131.499C129.92 63.8978 129.026 62.6032 129.531 61.0133L139.269 30.4081C139.777 28.8205 141.487 27.5193 143.083 27.5193H143.365C144.946 27.5193 145.834 28.8205 145.329 30.4081L135.595 61.0133V61.0133Z" fill="white"/>
<path d="M229.413 47.2258L234.719 30.5531C235.786 27.2203 233.925 24.4911 230.588 24.4911H185.107C181.777 24.4911 178.179 27.2203 177.121 30.5531L167.481 60.8741C166.412 64.2068 168.266 66.9317 171.601 66.9317H223.148L224.112 63.8985H198.344C195.009 63.8985 193.151 61.1737 194.205 57.8409L197.583 47.2258H229.413ZM202.932 30.4088C203.435 28.8211 205.152 27.5178 206.742 27.5178H207.029C208.621 27.5178 209.497 28.8211 208.997 30.4088L204.61 44.1926H198.55L202.932 30.4088Z" fill="white"/>
<path d="M273.582 27.5247H299.354L300.321 24.4915H248.779C245.439 24.4915 241.842 27.2208 240.779 30.5535L231.139 60.8636C230.072 64.2051 231.942 66.9321 235.273 66.9321H286.802L287.771 63.8989H262.003C258.668 63.8989 256.809 61.1741 257.872 57.8347L265.596 33.5824C266.645 30.2474 270.251 27.5247 273.582 27.5247Z" fill="white"/>
<path d="M82.171 0.235896L68.6737 42.6786L42.768 0.235896H21.5401L0.320923 66.931H3.35848L16.8558 24.4926L42.768 66.931H63.985L85.2086 0.235896H82.171Z" fill="white"/>
</svg>
