<svg width="161" height="139" viewBox="0 0 461 439" fill="none" xmlns="http://www.w3.org/2000/svg">
<path d="M395.879 192.955C400.041 192.955 403.78 195.962 403.78 200.578C403.78 205.264 400.041 208.202 395.879 208.202C391.716 208.202 387.977 205.194 387.977 200.578C387.906 195.962 391.645 192.955 395.879 192.955ZM395.879 206.593C399.053 206.593 401.664 204.075 401.664 200.578C401.664 197.082 399.053 194.564 395.879 194.564C392.633 194.564 390.093 197.082 390.093 200.578C390.023 204.075 392.633 206.593 395.879 206.593ZM392.774 196.312H396.02C398.207 196.312 399.406 197.012 399.406 198.83C399.406 200.439 398.418 200.998 397.149 201.138L399.477 204.915H397.713L395.596 201.278H394.538V204.915H392.845V196.312H392.774ZM394.468 199.879H396.02C397.007 199.879 397.713 199.739 397.713 198.69C397.713 197.781 396.725 197.641 395.949 197.641H394.538V199.879H394.468Z" fill="white"/>
<path d="M423.464 214.426H381.063C381.063 215.545 381.063 215.965 381.063 220.931C381.063 226.106 375.983 232.96 367.869 232.96C362.86 232.96 76.6301 232.96 71.5504 232.96V281.358C71.5504 288.841 77.9001 294.996 85.6608 294.996H423.464C431.225 294.996 437.575 288.911 437.575 281.358V228.064C437.575 220.511 431.225 214.426 423.464 214.426Z" fill="#D8CDCE"/>
<path d="M381.98 169.666C381.98 162.252 375.701 156.237 367.94 156.237H28.3019C20.5412 156.237 14.262 162.252 14.262 169.666V220.511C14.262 227.924 20.5412 233.939 28.3019 233.939H28.8663H367.94C375.701 233.939 381.98 227.924 381.98 220.511V169.666Z" fill="white"/>
<path d="M71.4093 221.49H35.6393V169.666H49.6087V209.461H71.4093V221.49Z" fill="black"/>
<path d="M91.7988 169.666H77.8295V221.49H91.7988V169.666Z" fill="black"/>
<path d="M151.98 221.49H128.204L113.458 181.695H112.894L113.741 221.49H99.7712V169.666H123.336L138.363 209.461H138.928L138.081 169.666H151.98V221.49Z" fill="black"/>
<path d="M205.811 203.376C205.811 209.041 205.741 214.147 201.014 218.063C196.287 221.91 190.501 221.84 184.434 221.84C170.253 221.84 159.811 221.14 159.811 202.257V188.829C159.811 171.694 169.053 169.246 184.434 169.246C198.826 169.246 205.458 170.715 205.741 186.241V188.269H191.348V186.241C190.854 181.625 187.609 181.275 182.882 181.275C174.909 181.275 174.133 183.723 174.133 191.067V199.18C174.133 206.943 174.486 209.88 182.882 209.88C188.667 209.88 191.418 209.461 191.418 203.376V201.837H205.811V203.376Z" fill="black"/>
<path d="M259.36 202.886C259.36 218.832 249.342 221.91 235.161 221.91C221.05 221.91 210.961 218.902 210.961 202.886V188.269C210.961 172.323 220.98 169.246 235.161 169.246C249.342 169.246 259.36 172.253 259.36 188.269V202.886Z" fill="black"/>
<path d="M301.409 221.49H265.075V169.666H279.256V209.461H301.409V221.49Z" fill="black"/>
<path d="M359.403 221.49H335.627L320.882 181.695H320.317L321.164 221.49H307.195V169.666H330.759L345.787 209.461H346.351L345.504 169.666H359.403V221.49Z" fill="black"/>
<path d="M235.161 181.275C227.894 181.275 225.566 182.045 225.354 189.668V201.348C225.566 209.111 227.894 209.81 235.161 209.81C242.428 209.81 244.968 209.041 244.968 201.348V189.668C244.968 182.045 242.428 181.275 235.161 181.275Z" fill="white"/>
<path d="M145.983 282.547H114.446V244.43H145.63V252.753H125.946V259.747H144.431V266.81H125.946V274.224H145.983V282.547Z" fill="black"/>
<path d="M181.823 282.547H152.121V244.43H163.691V273.734H181.823V282.547Z" fill="black"/>
<path d="M218.793 282.547H187.256V244.43H218.369V252.753H198.756V259.747H217.17V266.81H198.756V274.224H218.793V282.547Z" fill="black"/>
<path d="M261.83 269.258C261.83 273.454 261.759 277.161 257.808 280.099C253.857 282.966 248.989 282.896 243.98 282.896C232.127 282.896 223.449 282.407 223.449 268.419V258.558C223.449 245.969 231.21 244.08 243.98 244.08C255.974 244.08 261.547 245.129 261.759 256.599V258.068H249.765V256.599C249.342 253.172 246.661 252.962 242.639 252.962C236.007 252.962 235.372 254.781 235.372 260.166V266.111C235.372 271.846 235.655 274.014 242.639 274.014C247.437 274.014 249.765 273.734 249.765 269.258V268.139H261.759V269.258H261.83Z" fill="black"/>
<path d="M298.023 253.242H286.523V282.547H275.093V253.242H264.158V244.43H298.023V253.242Z" fill="black"/>
<path d="M337.603 274.923V282.616H326.455V277.301C326.596 274.434 325.256 272.545 321.869 272.545H313.262V282.686H302.115V244.57H323.633C333.299 244.71 338.026 246.598 338.026 256.11C338.026 262.474 338.026 266.181 330.124 267.859V268.279C334.639 268.279 337.603 270.587 337.603 274.923Z" fill="black"/>
<path d="M356.299 244.43H344.305V282.547H356.299V244.43Z" fill="black"/>
<path d="M399.83 269.258C399.83 273.454 399.759 277.161 395.949 280.099C392.069 282.966 387.412 282.896 382.474 282.896C370.974 282.896 362.507 282.407 362.507 268.419V258.558C362.507 245.969 369.986 244.08 382.474 244.08C394.115 244.08 399.547 245.129 399.759 256.599V258.068H388.118V256.599C387.695 253.172 385.084 252.962 381.204 252.962C374.783 252.962 374.149 254.781 374.149 260.166V266.111C374.149 271.846 374.431 274.014 381.204 274.014C385.931 274.014 388.188 273.734 388.188 269.258V268.139H399.83V269.258Z" fill="black"/>
<path d="M321.869 253.242H313.262V263.593H321.869C326.667 263.593 326.526 261.985 326.526 257.648C326.526 254.221 325.538 253.242 321.869 253.242Z" fill="#D8CDCE"/>
</svg>
