<svg width="198" height="198" viewBox="0 0 418 371" fill="none" xmlns="http://www.w3.org/2000/svg">
<path fill-rule="evenodd" clip-rule="evenodd" d="M398.314 156.58V167.016C392.318 164.975 386.979 163.943 382.307 163.943C379.539 163.943 377.335 164.405 375.678 165.299C374.021 166.2 373.175 167.309 373.175 168.618C373.175 170.359 375.046 171.907 378.813 173.294L389.695 178.069C398.494 181.851 402.859 186.873 402.859 193.181C402.859 198.426 400.544 202.608 395.871 205.705C391.233 208.832 384.989 210.38 377.215 210.38C373.628 210.38 370.407 210.241 367.546 209.949C364.684 209.671 361.395 209.101 357.748 208.285V197.363C364.436 199.404 370.527 200.436 376.011 200.436C382.554 200.436 385.809 198.726 385.809 195.276C385.809 193.558 384.476 192.172 381.768 191.086L369.681 186.441C365.222 184.624 361.908 182.421 359.738 179.81C357.603 177.176 356.518 174.156 356.518 170.706C356.518 165.876 358.773 161.987 363.232 159.029C367.725 156.094 373.688 154.623 381.102 154.623C383.511 154.623 386.287 154.816 389.362 155.17C392.463 155.547 395.444 156.01 398.314 156.58V156.58Z" fill="white"/>
<path fill-rule="evenodd" clip-rule="evenodd" d="M55.9797 156.58V167.016C49.983 164.975 44.6527 163.943 39.9802 163.943C37.2039 163.943 35.0087 164.405 33.3514 165.299C31.6944 166.2 30.8486 167.309 30.8486 168.618C30.8486 170.359 32.745 171.907 36.5121 173.294L47.3948 178.069C56.159 181.851 60.5327 186.873 60.5327 193.181C60.5327 198.426 58.2092 202.608 53.5708 205.705C48.8982 208.832 42.6881 210.38 34.8892 210.38C31.3014 210.38 28.0724 210.241 25.2108 209.949C22.3492 209.671 19.0946 209.101 15.4216 208.285V197.363C22.1357 199.404 28.2263 200.436 33.6761 200.436C40.2194 200.436 43.474 198.726 43.474 195.276C43.474 193.558 42.1499 192.172 39.4676 191.086L27.3806 186.441C22.8873 184.624 19.573 182.421 17.4375 179.81C15.2677 177.176 14.2086 174.156 14.2086 170.706C14.2086 165.876 16.4467 161.987 20.9312 159.029C25.3903 156.094 31.3612 154.623 38.7758 154.623C41.2103 154.623 43.9524 154.816 47.0616 155.17C50.1369 155.547 53.118 156.01 55.9797 156.58V156.58Z" fill="white"/>
<path fill-rule="evenodd" clip-rule="evenodd" d="M68.4511 155.601H86.1762V209.402H68.4511V155.601Z" fill="white"/>
<path fill-rule="evenodd" clip-rule="evenodd" d="M143.28 155.601V165.545H116.945V177.476H139.787V186.441H116.945V198.965H143.818V209.402H99.8864V155.601H143.28Z" fill="white"/>
<path fill-rule="evenodd" clip-rule="evenodd" d="M226.028 155.601V209.402H209.481V173.917L192.312 209.895H182.096L165.584 173.917V209.402H153.616V155.601H175.254L190.023 188.536L205.476 155.601H226.028Z" fill="white"/>
<path fill-rule="evenodd" clip-rule="evenodd" d="M283.107 155.601V165.545H256.916V177.476H279.757V186.441H256.916V198.965H283.645V209.402H239.713V155.601H283.107Z" fill="white"/>
<path fill-rule="evenodd" clip-rule="evenodd" d="M345.302 155.601V209.402H326.501L305.403 174.896V209.402H293.443V155.601H312.792L333.344 189.515V155.601H345.302Z" fill="white"/>
</svg>
