<svg width="181" height="181" viewBox="0 0 381 181" fill="none" xmlns="http://www.w3.org/2000/svg">
<g clip-path="url(#clip0)">
<path d="M364.031 117.187H380.442L363.508 64.2399L340.186 64.239L323.252 117.186H339.668L342.66 107.385H361.024L364.031 117.186V117.187ZM346.213 95.6117L351.799 77.3187H351.894L357.48 95.6117H346.213Z" fill="white"/>
<path d="M82.37 118.136C99.223 118.136 107.369 115.324 108.523 100.917C108.799 97.4891 108.851 93.9696 108.851 90.7071C108.856 87.4559 108.799 83.9328 108.523 80.5052C107.369 66.0939 99.223 63.2859 82.37 63.2859C65.517 63.2859 57.3755 66.0939 56.226 80.5052C55.9457 83.9328 55.8887 87.4559 55.8887 90.7071C55.8935 93.9696 55.9457 97.4891 56.226 100.917C57.3755 115.324 65.517 118.136 82.37 118.136ZM71.7727 90.7071C71.7727 87.7997 71.8487 86.0811 71.9152 84.8058C72.3427 76.6334 75.7485 75.6807 82.37 75.6807C88.9962 75.6807 92.402 76.6334 92.8247 84.8058C92.8912 86.0807 92.972 87.7992 92.972 90.7071C92.972 93.624 92.8912 95.3457 92.8247 96.6179C92.402 104.792 88.9962 105.746 82.37 105.746C75.7485 105.746 72.3427 104.792 71.9152 96.6179C71.8487 95.3457 71.7727 93.624 71.7727 90.7071V90.7071Z" fill="white"/>
<path d="M0.441986 64.2633V77.4623H17.1487V117.209H33.8616V77.4623H50.5687V64.2633H0.441986Z" fill="white"/>
<path d="M256.871 117.187V64.239H241.01V117.187H256.871Z" fill="white"/>
<path d="M193.054 83.5706V64.239H177.284V117.187H193.054V96.7695H211.38V117.187H227.145V64.239H211.38V83.5706H193.054Z" fill="white"/>
<path d="M309.035 89.5133C316.06 87.8118 318.122 83.8361 318.122 78.0896C318.122 66.453 310.394 64.2386 299.407 64.2386H270.931V117.186H300.818C314.578 117.186 319.205 111.57 319.205 102.932C319.205 96.9095 317.751 91.5959 309.035 89.5119V89.5133ZM286.696 95.438H297.63C302.048 95.438 302.969 97.2713 302.969 100.253C302.969 103.237 301.24 105.076 297.63 105.076H286.696V95.438ZM286.696 76.3467H297.63C300.485 76.3467 302.252 77.6297 302.252 80.7153C302.252 83.3604 300.504 84.9885 297.63 84.9885H286.696V76.3467Z" fill="white"/>
<path d="M118.042 99.8127H133.076C133.09 102.381 133.437 104.098 134.753 105.046C136.249 106.114 137.589 106.467 142.03 106.467C146.305 106.467 150.988 106.467 150.988 101.479C150.988 97.5451 148.371 96.6474 143.54 96.4035C131.561 95.8023 127.229 95.4814 122.769 92.3422C119.729 90.2016 118.152 86.0341 118.152 80.3983C118.152 70.8146 121.681 67.4527 126.773 65.1068C132.026 62.6854 152.646 62.6854 158.194 65.1068C165.172 68.1524 165.376 74.7458 165.376 80.8618H150.38C150.352 77.7437 149.611 76.8631 149.008 76.283C147.45 74.9744 145.231 74.6981 142.03 74.6981C138.154 74.6981 133.67 74.8637 133.67 79.3228C133.67 82.7248 135.223 84.1468 139.299 84.397C144.899 84.7363 155.933 85.0706 159.866 87.2693C165.381 90.3595 166.811 94.5409 166.811 101.363C166.811 111.222 163.087 114.115 157.904 116.284C151.924 118.786 131.95 118.786 125.457 116.091C118.19 113.089 118.042 107.107 118.042 99.8127" fill="white"/>
</g>
<defs>
<clipPath id="clip0">
<rect width="380" height="180" fill="white" transform="translate(0.441986 0.711853)"/>
</clipPath>
</defs>
</svg>
